<svg width="1024" height="1024" viewBox="0 0 1024 1024" fill="none" xmlns="http://www.w3.org/2000/svg">
<rect width="1024" height="1024" rx="32" fill="#222222"/>
<path fill-rule="evenodd" clip-rule="evenodd" d="M185 476.025L231.012 125.02L653.244 95L807.521 168.896L840 279.739L807.521 406.748L715.496 529.138L807.521 644.6L764.215 833.958L680.31 928.636L336.57 905.544L185 762.371V476.025ZM312.211 312.069L339.277 224.317H553.099L674.897 312.069L482.727 422.912H312.211V346.707V312.069ZM339.277 586.869L312.211 674.62V709.258V785.463H482.727H618.058L674.897 674.62L553.099 586.869H339.277Z" fill="url(#paint0_linear_24_17)"/>
<path d="M231.012 125.02L230.977 124.521L230.57 124.55L230.517 124.955L231.012 125.02ZM185 476.025L184.504 475.96L184.5 475.992V476.025H185ZM653.244 95L653.46 94.5491L653.34 94.4919L653.208 94.5013L653.244 95ZM807.521 168.896L808 168.755L807.938 168.541L807.737 168.445L807.521 168.896ZM840 279.739L840.484 279.863L840.518 279.73L840.48 279.599L840 279.739ZM807.521 406.748L807.92 407.048L807.98 406.968L808.005 406.872L807.521 406.748ZM715.496 529.138L715.096 528.837L714.864 529.146L715.105 529.449L715.496 529.138ZM807.521 644.6L808.008 644.711L808.062 644.476L807.912 644.288L807.521 644.6ZM764.215 833.958L764.589 834.289L764.674 834.194L764.702 834.069L764.215 833.958ZM680.31 928.636L680.276 929.135L680.521 929.152L680.684 928.968L680.31 928.636ZM336.57 905.544L336.227 905.907L336.357 906.031L336.537 906.043L336.57 905.544ZM185 762.371H184.5V762.586L184.657 762.734L185 762.371ZM339.277 224.317V223.817H338.908L338.799 224.17L339.277 224.317ZM312.211 312.069L311.733 311.921L311.711 311.993V312.069H312.211ZM553.099 224.317L553.391 223.912L553.261 223.817H553.099V224.317ZM674.897 312.069L675.147 312.502L675.817 312.115L675.189 311.663L674.897 312.069ZM482.727 422.912V423.412H482.861L482.977 423.345L482.727 422.912ZM312.211 422.912H311.711V423.412H312.211V422.912ZM312.211 674.62L311.733 674.472L311.711 674.544V674.62H312.211ZM339.277 586.869V586.369H338.908L338.799 586.721L339.277 586.869ZM312.211 785.463H311.711V785.963H312.211V785.463ZM618.058 785.463V785.963H618.363L618.503 785.692L618.058 785.463ZM674.897 674.62L675.342 674.848L675.538 674.465L675.189 674.214L674.897 674.62ZM553.099 586.869L553.391 586.463L553.261 586.369H553.099V586.869ZM230.517 124.955L184.504 475.96L185.496 476.09L231.508 125.085L230.517 124.955ZM653.208 94.5013L230.977 124.521L231.048 125.519L653.279 95.4987L653.208 94.5013ZM807.737 168.445L653.46 94.5491L653.028 95.4509L807.305 169.347L807.737 168.445ZM840.48 279.599L808 168.755L807.041 169.036L839.52 279.88L840.48 279.599ZM808.005 406.872L840.484 279.863L839.516 279.616L807.036 406.624L808.005 406.872ZM715.896 529.438L807.92 407.048L807.121 406.447L715.096 528.837L715.896 529.438ZM807.912 644.288L715.887 528.826L715.105 529.449L807.13 644.911L807.912 644.288ZM764.702 834.069L808.008 644.711L807.033 644.488L763.727 833.846L764.702 834.069ZM680.684 928.968L764.589 834.289L763.841 833.626L679.936 928.305L680.684 928.968ZM336.537 906.043L680.276 929.135L680.343 928.138L336.604 905.045L336.537 906.043ZM184.657 762.734L336.227 905.907L336.914 905.181L185.343 762.008L184.657 762.734ZM184.5 476.025V762.371H185.5V476.025H184.5ZM338.799 224.17L311.733 311.921L312.689 312.216L339.755 224.465L338.799 224.17ZM553.099 223.817H339.277V224.817H553.099V223.817ZM675.189 311.663L553.391 223.912L552.807 224.723L674.604 312.474L675.189 311.663ZM482.977 423.345L675.147 312.502L674.647 311.635L482.478 422.479L482.977 423.345ZM312.211 423.412H482.727V422.412H312.211V423.412ZM311.711 346.707V422.912H312.711V346.707H311.711ZM311.711 312.069V346.707H312.711V312.069H311.711ZM312.689 674.767L339.755 587.016L338.799 586.721L311.733 674.472L312.689 674.767ZM312.711 709.258V674.62H311.711V709.258H312.711ZM312.711 785.463V709.258H311.711V785.463H312.711ZM482.727 784.963H312.211V785.963H482.727V784.963ZM618.058 784.963H482.727V785.963H618.058V784.963ZM674.452 674.392L617.613 785.235L618.503 785.692L675.342 674.848L674.452 674.392ZM552.807 587.274L674.604 675.025L675.189 674.214L553.391 586.463L552.807 587.274ZM339.277 587.369H553.099V586.369H339.277V587.369Z" fill="black"/>
<defs>
<linearGradient id="paint0_linear_24_17" x1="374.605" y1="-42.9178" x2="1081.37" y2="593.068" gradientUnits="userSpaceOnUse">
<stop stop-color="#FF5260"/>
<stop offset="1" stop-color="#F49E58"/>
</linearGradient>
</defs>
</svg>
